<?xml version="1.0" standalone="no"?>
<!DOCTYPE svg PUBLIC "-//W3C//DTD SVG 20010904//EN"
 "http://www.w3.org/TR/2001/REC-SVG-20010904/DTD/svg10.dtd">
<svg version="1.0" xmlns="http://www.w3.org/2000/svg"
 width="64px" height="64px" viewBox="0 0 1024.000000 1024.000000"
 preserveAspectRatio="xMidYMid meet">

<g transform="translate(0.000000,1024.000000) scale(0.100000,-0.100000)"
fill="#000000" stroke="none">
<path d="M4910 7984 c-656 -61 -1230 -315 -1702 -755 -113 -106 -294 -323
-397 -476 -120 -179 -260 -453 -320 -627 -162 -464 -195 -1052 -85 -1504 62
-255 167 -508 305 -737 263 -438 573 -748 992 -994 429 -251 936 -391 1418
-391 666 0 1327 243 1859 684 102 84 131 113 236 231 71 79 167 200 217 275
118 172 154 233 238 401 188 377 278 836 249 1275 -60 924 -497 1673 -1286
2202 -252 169 -699 336 -1036 388 -142 21 -215 26 -408 29 -129 1 -255 1 -280
-1z m655 -247 c180 -30 237 -44 420 -104 135 -44 343 -140 487 -224 86 -50
279 -194 382 -285 149 -132 321 -329 431 -494 166 -251 265 -472 345 -774 187
-707 66 -1404 -353 -2026 -212 -315 -379 -480 -697 -689 -236 -155 -417 -241
-666 -316 -437 -133 -792 -163 -1161 -99 -226 39 -556 138 -731 220 -241 112
-524 305 -688 469 -363 362 -596 757 -703 1194 -70 283 -76 328 -76 611 0 276
8 352 65 600 101 440 312 826 635 1159 124 128 412 358 545 435 280 162 544
258 870 316 195 34 257 39 505 35 199 -2 266 -7 390 -28z"/>
<path d="M4850 7555 c-450 -57 -894 -245 -1225 -519 -257 -213 -487 -500 -628
-781 -97 -196 -188 -482 -219 -694 -21 -138 -17 -582 6 -706 103 -563 441
-1125 871 -1445 312 -233 636 -377 1018 -454 418 -85 683 -72 1131 56 307 87
553 213 837 429 93 70 239 225 354 374 283 366 423 677 491 1090 25 149 25
481 0 645 -74 493 -267 885 -634 1289 -182 200 -371 345 -613 470 -219 113
-424 180 -694 227 -190 33 -514 42 -695 19z m483 -185 c519 -43 1047 -302
1384 -677 332 -371 480 -663 558 -1103 9 -52 19 -172 22 -265 16 -466 -96
-886 -332 -1244 -316 -480 -794 -808 -1350 -924 -163 -35 -286 -47 -462 -47
-213 0 -353 16 -531 60 -464 115 -766 281 -1057 582 -228 234 -391 492 -484
761 -89 258 -121 447 -121 711 0 599 223 1132 644 1539 226 220 559 420 831
502 136 41 365 92 470 104 100 12 291 12 428 1z"/>
<path d="M4975 7109 c-71 -11 -231 -62 -300 -97 -117 -58 -277 -203 -350 -317
-116 -181 -165 -343 -165 -547 l0 -84 -37 -13 c-52 -19 -117 -84 -142 -141
-97 -224 56 -493 294 -517 50 -5 55 -8 64 -37 5 -17 34 -110 65 -206 30 -96
93 -301 141 -455 48 -154 124 -397 170 -540 45 -143 102 -321 125 -395 74
-240 83 -261 127 -310 75 -83 170 -108 252 -65 28 14 88 81 110 122 6 12 34
93 62 180 28 87 84 257 124 378 40 121 109 337 155 480 138 436 260 809 269
824 5 7 30 17 57 22 88 16 150 55 215 133 77 92 102 158 97 251 -6 120 -90
256 -178 286 -27 10 -27 10 -28 107 -3 418 -275 776 -697 917 -69 24 -100 28
-225 30 -80 2 -172 0 -205 -6z m375 -228 c182 -58 392 -231 462 -381 50 -105
69 -186 75 -325 6 -120 5 -121 -22 -153 -23 -28 -33 -32 -73 -32 -47 0 -123
28 -136 49 -4 6 -14 11 -23 11 -14 0 -15 -11 -10 -79 6 -92 22 -132 57 -142
48 -13 206 -10 250 6 102 36 170 6 170 -75 0 -51 -19 -88 -64 -127 -48 -43
-98 -58 -196 -58 -103 0 -164 25 -252 103 -91 80 -120 79 -215 -10 -66 -62
-129 -89 -218 -95 -90 -6 -157 18 -243 87 -34 28 -78 58 -97 66 -43 17 -57 11
-130 -54 -70 -63 -136 -91 -232 -99 -111 -8 -183 14 -240 73 -56 58 -73 115
-47 164 29 54 57 58 164 25 81 -24 102 -27 178 -22 119 8 158 20 165 53 6 31
-9 92 -28 114 -7 8 -10 21 -8 28 3 8 -1 10 -13 5 -11 -4 -15 -3 -11 4 5 8 -2
8 -22 0 -23 -8 -51 -7 -118 4 l-88 14 -3 109 c-7 290 78 467 308 637 64 47
163 91 250 110 116 26 316 21 410 -10z m-524 -1417 c105 -79 195 -107 333
-102 88 3 104 6 172 40 41 21 88 49 103 63 30 28 44 25 86 -20 35 -37 71 -55
134 -63 l53 -7 -63 -200 c-35 -110 -109 -344 -163 -520 -55 -176 -118 -372
-139 -435 -22 -63 -68 -205 -102 -315 -90 -294 -87 -287 -119 -283 -23 3 -29
11 -47 73 -12 39 -63 201 -112 360 -101 321 -265 854 -348 1129 -30 98 -57
183 -60 187 -3 5 6 9 19 9 34 0 137 54 172 90 16 16 30 30 32 30 1 0 24 -16
49 -36z"/>
<path d="M4905 6741 c-72 -35 -195 -137 -248 -206 -60 -78 -99 -162 -104 -225
-5 -49 -2 -60 18 -83 15 -17 38 -30 60 -33 53 -9 90 30 119 124 35 112 113
184 250 231 36 13 75 34 88 47 43 48 20 124 -48 159 -42 21 -67 19 -135 -14z"/>
</g>
</svg>
